<svg width="80" height="80" viewBox="0 0 80 80" fill="none" xmlns="http://www.w3.org/2000/svg">
<path opacity="0.1" d="M72.2089 61.1274C70.5407 64.5782 67.1515 66.8856 63.6405 68.4073C60.8294 69.6176 57.8579 70.4124 54.819 70.767C54.2369 70.8363 53.653 70.89 53.0672 70.9282C51.5703 71.026 50.0686 71.0243 48.572 70.9231C47.6717 70.8631 46.7746 70.7672 45.8806 70.6354C42.7743 70.1812 39.7459 69.2972 36.882 68.0088C36.0554 67.6357 35.2456 67.2283 34.4525 66.7868C33.1279 66.0508 31.8587 65.2188 30.6551 64.2974C30.3888 64.0934 30.1258 63.885 29.8662 63.6722L29.7594 63.5847C29.5553 63.416 29.353 63.2435 29.1477 63.076C28.8063 62.7893 28.4439 62.5288 28.0636 62.2966C28.0378 62.2814 28.0121 62.2663 27.9857 62.2519C27.9153 62.2109 27.8437 62.1725 27.7709 62.136C27.6208 62.0602 27.4669 61.9921 27.3099 61.932C26.5844 61.655 25.8075 61.5543 25.0198 61.5713C24.8892 61.5713 24.7586 61.5801 24.6273 61.5889C24.4439 61.6015 24.2599 61.6204 24.0765 61.6443L24.0086 61.6537C23.4242 61.7366 22.8464 61.861 22.2795 62.0258C21.4039 62.2777 20.5441 62.5925 19.6786 62.8764C19.3111 62.9979 18.9431 63.1138 18.5719 63.2176L18.4902 63.2403C17.9623 63.3892 17.4249 63.5019 16.8817 63.5778C15.6473 63.7359 14.3936 63.6347 13.2004 63.2806L13.159 63.2686L13.0824 63.246L12.9775 63.2132C12.8016 63.1578 12.6272 63.0972 12.4543 63.0313L12.3494 62.991C12.1819 62.9263 12.0179 62.8569 11.8576 62.7826L11.7527 62.7347C11.5852 62.6567 11.4213 62.5742 11.2609 62.4873C11.2031 62.4571 11.1459 62.4244 11.0894 62.3935C10.9186 62.2978 10.7511 62.1975 10.5869 62.0926C10.4128 61.9813 10.2423 61.8653 10.0757 61.7444C9.99863 61.689 9.92243 61.6321 9.84706 61.5738C9.41257 61.2407 9.0057 60.8728 8.63044 60.4739C8.60972 60.4531 8.59025 60.4317 8.57078 60.4109C8.47091 60.3027 8.37293 60.1925 8.27808 60.0798C8.24291 60.0382 8.20774 59.9967 8.17319 59.9539C8.06056 59.8162 7.9519 59.6754 7.84721 59.5314C7.83151 59.5106 7.81644 59.4892 7.80136 59.4685C7.37221 58.8736 7.01643 58.2288 6.74178 57.5482C6.73298 57.5274 6.72482 57.506 6.71728 57.4853C6.63353 57.2691 6.55712 57.0494 6.48803 56.8261C6.45976 56.7329 6.43275 56.6372 6.40889 56.544C6.40072 56.5163 6.39318 56.488 6.38628 56.4603C6.03957 55.0922 6 53.67 6 52.2559C6 52.091 6 51.9262 6 51.7617C6.01005 49.4744 6.04522 47.1481 6.38188 44.8923C6.38188 44.8766 6.38628 44.8608 6.38879 44.8457C6.50147 44.0863 6.65473 43.3335 6.84792 42.5905C7.05012 41.811 7.30852 41.0472 7.6211 40.3051C8.39554 38.4793 9.52171 36.8179 10.7722 35.2779C12.2797 33.425 14.0069 31.7151 15.9307 30.3042C16.2071 30.1015 16.4872 29.9046 16.7711 29.7136L16.9024 29.6274C16.9482 29.5965 16.9941 29.5644 17.0399 29.5373C17.1342 29.4744 17.2284 29.4152 17.3238 29.3554L17.4306 29.2887L17.6341 29.1627L17.6969 29.1269L17.8056 29.0639L17.913 29.0009C18.0386 28.9267 18.1657 28.854 18.2942 28.7831C18.8432 28.4763 19.4051 28.1959 19.98 27.942C20.1496 27.8669 20.3203 27.7944 20.4919 27.7248C21.2714 27.4066 22.072 27.1434 22.8881 26.9372C23.1896 26.8608 23.493 26.7936 23.7982 26.7357C24.1583 26.666 24.5203 26.6083 24.8842 26.5626C25.4632 26.4895 26.0456 26.446 26.629 26.4322C30.7317 26.3321 34.8758 27.6706 38.091 30.2362C39.3723 31.2586 40.5236 32.4693 41.9626 33.2532C43.2188 33.9356 44.6891 34.2183 46.0345 33.6813C47.1462 33.2374 47.8698 33.0171 49.1184 33.0844C51.7022 33.2303 54.2494 33.7643 56.675 34.6685C56.773 34.7044 56.8709 34.7415 56.9683 34.7786C63.2938 37.2057 68.7324 42.0252 71.5576 48.2184C71.6321 48.3821 71.7048 48.547 71.7755 48.7133C73.4607 52.6576 74.0687 57.2819 72.2089 61.1274Z" fill="#02275D"/>
<g clip-path="url(#clip0)">
<g opacity="0.5">
<path opacity="0.5" d="M46.2323 9.00082L17.844 21.9501L35.7358 61.1739L64.1241 48.2246L46.2323 9.00082Z" fill="url(#paint0_linear)"/>
</g>
<path d="M46.0026 9.45445L18.3367 22.0742L35.8331 60.4311L63.4991 47.8114L46.0026 9.45445Z" fill="white"/>
<path d="M38.6063 11.6041L24.8816 17.8646L26.3981 21.1892L40.1228 14.9287L38.6063 11.6041Z" fill="url(#paint1_linear)"/>
<path d="M30.2615 11.4852C29.2021 11.9686 28.7443 13.2398 29.2393 14.3247C29.7342 15.4096 30.9945 15.8972 32.0538 15.4138C33.1131 14.9304 33.571 13.6592 33.076 12.5743C32.581 11.4894 31.3208 11.0018 30.2615 11.4852ZM31.6745 14.5828C31.4516 14.6909 31.2016 14.7302 30.9562 14.6955C30.7109 14.6609 30.4815 14.5539 30.2973 14.3882C30.1131 14.2226 29.9824 14.0058 29.922 13.7655C29.8615 13.5253 29.8741 13.2724 29.958 13.0393C30.042 12.8062 30.1935 12.6034 30.3932 12.4569C30.5929 12.3103 30.8318 12.2265 31.0794 12.2164C31.3269 12.2062 31.5718 12.27 31.7829 12.3997C31.994 12.5294 32.1617 12.7191 32.2645 12.9445C32.3333 13.0908 32.3727 13.2493 32.3804 13.4109C32.388 13.5725 32.3637 13.7339 32.309 13.8861C32.2542 14.0383 32.1699 14.1782 32.0611 14.2979C31.9522 14.4175 31.8209 14.5145 31.6745 14.5834V14.5828Z" fill="url(#paint2_linear)"/>
<path d="M38.4627 11.6724L25.0271 17.801L26.4769 20.9793L39.9124 14.8507L38.4627 11.6724Z" fill="#02275D"/>
<path d="M30.3274 11.63C29.9558 11.7994 29.6429 12.0752 29.4281 12.4225C29.2133 12.7698 29.1063 13.1729 29.1207 13.581C29.135 13.9891 29.2701 14.3837 29.5087 14.7151C29.7474 15.0464 30.0789 15.2995 30.4614 15.4424C30.8439 15.5853 31.2602 15.6115 31.6577 15.5178C32.0551 15.4241 32.4158 15.2146 32.6942 14.9159C32.9726 14.6172 33.1561 14.2426 33.2216 13.8396C33.2871 13.4365 33.2316 13.0231 33.0621 12.6516C32.8349 12.1535 32.4192 11.7661 31.9063 11.5745C31.3934 11.3829 30.8255 11.4029 30.3274 11.63ZM31.6783 14.5919C31.464 14.6896 31.2256 14.7215 30.9931 14.6837C30.7607 14.6459 30.5447 14.54 30.3724 14.3795C30.2001 14.2189 30.0793 14.0109 30.0253 13.7817C29.9712 13.5524 29.9864 13.3123 30.0687 13.0917C30.1511 12.8711 30.2971 12.6799 30.4882 12.5422C30.6792 12.4045 30.9068 12.3266 31.1422 12.3183C31.3775 12.3099 31.6101 12.3716 31.8104 12.4954C32.0107 12.6192 32.1698 12.7996 32.2676 13.0139C32.3986 13.3012 32.4101 13.6288 32.2996 13.9246C32.1891 14.2204 31.9656 14.4602 31.6783 14.5913V14.5919Z" fill="#02275D"/>
<path d="M28.3942 24.9914L22.4707 27.6934L25.1727 33.6168L31.0962 30.9149L28.3942 24.9914Z" fill="url(#paint3_linear)"/>
<path d="M33.7689 36.7206L27.8455 39.4226L30.5474 45.3461L36.4709 42.6441L33.7689 36.7206Z" fill="url(#paint4_linear)"/>
<path d="M28.2759 25.307L22.7861 27.8112L25.2903 33.3009L30.78 30.7968L28.2759 25.307Z" fill="#69F0AE"/>
<path d="M33.5808 36.9365L28.0911 39.4407L30.5952 44.9304L36.085 42.4263L33.5808 36.9365Z" fill="#02275D"/>
<path d="M40.1857 21.9219L32.6609 25.3544L32.9004 25.8795L40.4252 22.447L40.1857 21.9219Z" fill="#E0E0E0"/>
<path d="M45.4449 20.4745L33.0203 26.142L33.2598 26.6671L45.6844 20.9996L45.4449 20.4745Z" fill="#E0E0E0"/>
<path d="M44.9286 21.6613L33.3792 26.9296L33.6187 27.4547L45.1682 22.1864L44.9286 21.6613Z" fill="#E0E0E0"/>
<path d="M45.4906 33.5519L37.9658 36.9844L38.2053 37.5095L45.7302 34.077L45.4906 33.5519Z" fill="#E0E0E0"/>
<path d="M50.7501 32.104L38.3254 37.7715L38.565 38.2966L50.9896 32.6291L50.7501 32.104Z" fill="#E0E0E0"/>
<path d="M50.2338 33.2913L38.6843 38.5596L38.9239 39.0847L50.4733 33.8164L50.2338 33.2913Z" fill="#E0E0E0"/>
<path d="M25.3879 29.5449L26.8016 30.004L27.2667 27.2832L27.9547 27.4713L27.1809 30.835L25.0488 29.9005L25.3879 29.5449Z" fill="url(#paint5_linear)"/>
<path d="M25.5682 29.5089L26.7974 29.9077L27.2017 27.5419L27.7995 27.7056L27.1268 30.6304L25.2729 29.8182L25.5682 29.5089Z" fill="white"/>
<path d="M30.9064 41.211L32.1355 41.6097L32.5398 39.2439L33.1376 39.4077L32.4649 42.3324L30.6111 41.5202L30.9064 41.211Z" fill="white"/>
<path d="M54.5054 41.4854L36.9521 49.4923L39.621 55.3432L57.1743 47.3363L54.5054 41.4854Z" fill="#E0E0E0"/>
<path d="M51.9606 46.1485C51.286 45.9561 50.5956 45.9927 50.3807 46.764C50.3083 47.024 50.2997 47.4276 50.0209 47.5616C49.6106 47.7588 49.1156 47.3643 48.7594 47.2036C48.0958 46.9041 47.4146 47.108 47.0304 47.7375C46.8356 48.0565 46.7522 48.4236 46.6858 48.7871C46.6572 48.9448 46.6536 49.1396 46.5872 49.2882C46.46 49.5725 46.0618 49.5469 45.8006 49.5359C45.7434 49.5359 45.685 49.5292 45.6265 49.5232C45.833 49.2387 45.9361 48.8922 45.9187 48.5411C45.9017 47.9646 45.5273 47.3339 44.8728 47.4045C44.2865 47.4654 43.8737 48.0316 43.9395 48.6045C43.9955 49.0915 44.3127 49.469 44.7194 49.7003C44.5197 49.7886 44.3066 49.8574 44.1179 49.9487C44.0297 49.9914 43.9442 50.0392 43.8616 50.0918C43.2911 49.8166 42.5417 49.7649 42.0284 50.0455C41.78 50.1813 41.9615 50.5849 42.2111 50.4479C42.6019 50.2342 43.033 50.2878 43.4415 50.4236L43.4756 50.4358C43.4352 50.4875 43.3996 50.5427 43.369 50.6007C43.1383 51.0488 43.369 51.7575 43.9304 51.8062C44.7218 51.8738 44.759 50.8278 44.3291 50.4114C44.3109 50.3938 44.2926 50.3767 44.2731 50.3603C44.4509 50.2744 44.6433 50.2099 44.8131 50.1374C44.9611 50.0748 45.102 49.9964 45.2332 49.9037L45.2637 49.9116C45.8682 50.0486 46.8119 50.0912 47.0292 49.3588C47.2155 48.7232 47.2332 47.3734 48.2377 47.4983C48.6474 47.5488 48.9835 47.8635 49.3731 47.9774C49.722 48.0815 50.1256 48.0858 50.4118 47.8288C50.648 47.617 50.7009 47.304 50.7734 47.0118C50.8105 46.8608 50.8471 46.6806 50.97 46.5729C51.1923 46.3786 51.5594 46.4931 51.8072 46.5637C52.0781 46.6404 52.2352 46.2264 51.9606 46.1485ZM44.1069 51.2984C43.9736 51.4306 43.8323 51.3258 43.7611 51.1876C43.6747 51.0196 43.7118 50.854 43.822 50.7061C43.84 50.6819 43.8593 50.6587 43.8798 50.6367C44.1434 50.8071 44.359 51.0513 44.1094 51.2984H44.1069ZM44.5745 48.0109C44.8484 47.7564 45.2302 47.8124 45.3933 48.1619C45.5565 48.5113 45.4847 49.0044 45.2557 49.3125C45.2254 49.3529 45.1918 49.3908 45.1553 49.4257C44.9957 49.3724 44.8483 49.2882 44.7212 49.178C44.3973 48.8857 44.2141 48.3457 44.5769 48.009L44.5745 48.0109Z" fill="#02275D"/>
<path d="M55.6119 22.4979L50.6975 24.4139C49.7734 24.3451 47.8288 24.0942 45.8989 23.1841C43.7504 22.171 41.289 22.1734 39.202 23.2346C34.3924 23.3497 31.7452 22.7335 30.3328 22.1503L30.7054 21.3856L25.7241 19.4435L13.2703 13.8619V36.7386L17.6287 38.6807L19.9666 33.0724L25.1007 35.4467L26.0863 32.9421L29.4573 35.4437L29.6869 35.6367L29.3709 35.9648C29.0812 36.2708 28.9197 36.6762 28.9197 37.0975C28.9197 37.5189 29.0812 37.9242 29.3709 38.2302C29.5111 38.3784 29.68 38.4965 29.8674 38.5772C30.0548 38.6578 30.2566 38.6994 30.4607 38.6994C30.6647 38.6994 30.8665 38.6578 31.0539 38.5772C31.2413 38.4965 31.4102 38.3784 31.5504 38.2302L31.3775 38.4129C31.0878 38.7188 30.9264 39.1242 30.9264 39.5456C30.9264 39.9669 31.0878 40.3723 31.3775 40.6782C31.5177 40.8265 31.6867 40.9445 31.874 41.0252C32.0614 41.1059 32.2633 41.1475 32.4673 41.1475C32.6713 41.1475 32.8732 41.1059 33.0605 41.0252C33.2479 40.9445 33.4169 40.8265 33.5571 40.6782L34.5555 39.6402L33.87 40.3525C33.5803 40.6585 33.4188 41.0639 33.4188 41.4852C33.4188 41.9066 33.5803 42.3119 33.87 42.6179C34.0102 42.7661 34.1791 42.8842 34.3665 42.9649C34.5539 43.0455 34.7558 43.0871 34.9598 43.0871C35.1638 43.0871 35.3656 43.0455 35.553 42.9649C35.7404 42.8842 35.9093 42.7661 36.0495 42.6179L37.0352 41.5933L36.6206 42.0243C36.4181 42.2381 36.3052 42.5213 36.3052 42.8158C36.3052 43.1102 36.4181 43.3935 36.6206 43.6072C36.7185 43.7107 36.8365 43.7931 36.9674 43.8494C37.0982 43.9058 37.2392 43.9348 37.3816 43.9348C37.5241 43.9348 37.665 43.9058 37.7959 43.8494C37.9267 43.7931 38.0447 43.7107 38.1426 43.6072L38.8001 42.9242C39.9295 43.7491 40.8433 44.3512 41.2908 44.5071C43.1556 45.1536 43.1556 43.8587 43.1556 43.8587C45.6462 45.153 46.8919 42.5643 46.8919 42.5643C50.0053 43.8587 50.0053 40.6222 50.0053 40.6222C50.7834 41.1616 51.3447 40.9145 51.7368 40.4396C52.2707 39.7955 52.3358 38.8865 51.9693 38.1572L54.9452 35.4072L56.2322 38.0384L61.3663 35.6641L63.7042 40.8469L67.147 39.3096V16.6722L55.6119 22.4979Z" fill="url(#paint6_linear)"/>
<path d="M54.7851 34.4776L49.3654 39.2945L45.1506 31.4664L54.7851 29.058V34.4776Z" fill="#BE7C5E"/>
<path d="M28.8922 21.8319C28.8922 21.8319 30.6316 24.2404 40.9351 23.6382L46.9569 32.6706L50.9921 37.2105C51.6258 37.924 51.6618 39.0058 51.0396 39.7291C50.6615 40.1681 50.1178 40.3988 49.3653 39.8965C49.3653 39.8965 49.3653 42.9071 46.3548 41.7029C46.3548 41.7029 45.1505 44.1113 42.7421 42.9071C42.7421 42.9071 42.7421 44.1113 40.9357 43.5092C39.1294 42.9071 29.4943 35.0796 29.4943 35.0796L25.2795 32.0691L28.8922 21.8319Z" fill="#FDA57D"/>
<path d="M50.5698 24.8431C50.5698 24.8431 47.9677 24.8431 45.3949 23.6748C43.0552 22.6136 40.3308 22.7488 38.172 24.1418C36.4125 25.2772 34.888 27.1572 34.9167 30.2621C34.9167 30.2621 37.2581 32.6706 39.7336 27.8537H41.5399C41.5399 27.8537 43.2793 33.8754 48.1638 33.2721C53.0483 32.6688 54.1855 32.0679 54.1855 32.0679L50.5698 24.8431Z" fill="#BE7C5E"/>
<path d="M34.7612 36.7329L34.5657 36.5374C34.0377 36.0094 33.1815 36.0094 32.6535 36.5374L31.254 37.937C30.7259 38.465 30.7259 39.3212 31.254 39.8492L31.4494 40.0447C31.9775 40.5727 32.8336 40.5727 33.3617 40.0447L34.7612 38.6451C35.2892 38.1171 35.2892 37.2609 34.7612 36.7329Z" fill="#BE7C5E"/>
<path d="M32.8203 34.4582L32.6248 34.2628C32.0968 33.7347 31.2406 33.7347 30.7126 34.2628L29.313 35.6623C28.785 36.1904 28.785 37.0465 29.313 37.5746L29.5085 37.77C30.0365 38.2981 30.8927 38.2981 31.4207 37.77L32.8203 36.3705C33.3483 35.8424 33.3483 34.9863 32.8203 34.4582Z" fill="#BE7C5E"/>
<path d="M37.4707 38.2378L37.2752 38.0423C36.7472 37.5143 35.891 37.5143 35.363 38.0423L33.6625 39.7428C33.1345 40.2708 33.1345 41.127 33.6625 41.655L33.858 41.8505C34.386 42.3785 35.2422 42.3785 35.7702 41.8505L37.4707 40.15C37.9987 39.622 37.9987 38.7658 37.4707 38.2378Z" fill="#BE7C5E"/>
<path d="M38.8967 40.3329L38.7602 40.1964C38.3915 39.8276 37.7936 39.8276 37.4248 40.1964L36.3516 41.2696C35.9829 41.6384 35.9829 42.2362 36.3516 42.605L36.4881 42.7415C36.8568 43.1102 37.4547 43.1102 37.8235 42.7415L38.8967 41.6682C39.2655 41.2995 39.2655 40.7016 38.8967 40.3329Z" fill="#BE7C5E"/>
<path d="M60.8062 35.6818L55.3872 38.0902L49.9675 24.8431L54.7851 23.0367L60.8062 35.6818Z" fill="white"/>
<path d="M19.8606 32.6712L25.2796 35.0797L30.6993 21.8326L25.8817 20.0256L19.8606 32.6712Z" fill="white"/>
<path d="M13.8389 14.6066L25.8818 20.0256L18.0543 38.0902L13.8389 36.2839V14.6066Z" fill="#333333"/>
<path d="M66.8278 17.6172L54.7849 23.0368L62.613 41.1009L66.8278 39.2945V17.6172Z" fill="#02275D"/>
</g>
<defs>
<linearGradient id="paint0_linear" x1="49.9302" y1="54.6991" x2="32.0384" y2="15.4753" gradientUnits="userSpaceOnUse">
<stop stop-color="#808080" stop-opacity="0.25"/>
<stop offset="0.54" stop-color="#808080" stop-opacity="0.12"/>
<stop offset="1" stop-color="#808080" stop-opacity="0.1"/>
</linearGradient>
<linearGradient id="paint1_linear" x1="8673.64" y1="-3313.35" x2="8582.62" y2="-3512.89" gradientUnits="userSpaceOnUse">
<stop stop-color="#808080" stop-opacity="0.25"/>
<stop offset="0.54" stop-color="#808080" stop-opacity="0.12"/>
<stop offset="1" stop-color="#808080" stop-opacity="0.1"/>
</linearGradient>
<linearGradient id="paint2_linear" x1="2572.58" y1="-651.075" x2="2445.92" y2="-928.74" gradientUnits="userSpaceOnUse">
<stop stop-color="#808080" stop-opacity="0.25"/>
<stop offset="0.54" stop-color="#808080" stop-opacity="0.12"/>
<stop offset="1" stop-color="#808080" stop-opacity="0.1"/>
</linearGradient>
<linearGradient id="paint3_linear" x1="3521.04" y1="797.587" x2="3232.12" y2="164.191" gradientUnits="userSpaceOnUse">
<stop stop-color="#808080" stop-opacity="0.25"/>
<stop offset="0.54" stop-color="#808080" stop-opacity="0.12"/>
<stop offset="1" stop-color="#808080" stop-opacity="0.1"/>
</linearGradient>
<linearGradient id="paint4_linear" x1="4105.54" y1="2060.35" x2="3816.59" y2="1426.9" gradientUnits="userSpaceOnUse">
<stop stop-color="#808080" stop-opacity="0.25"/>
<stop offset="0.54" stop-color="#808080" stop-opacity="0.12"/>
<stop offset="1" stop-color="#808080" stop-opacity="0.1"/>
</linearGradient>
<linearGradient id="paint5_linear" x1="1623.19" y1="481.672" x2="1545.82" y2="312.051" gradientUnits="userSpaceOnUse">
<stop stop-color="#808080" stop-opacity="0.25"/>
<stop offset="0.54" stop-color="#808080" stop-opacity="0.12"/>
<stop offset="1" stop-color="#808080" stop-opacity="0.1"/>
</linearGradient>
<linearGradient id="paint6_linear" x1="32318.8" y1="18728.3" x2="32318.8" y2="3120.5" gradientUnits="userSpaceOnUse">
<stop stop-color="#808080" stop-opacity="0.25"/>
<stop offset="0.54" stop-color="#808080" stop-opacity="0.12"/>
<stop offset="1" stop-color="#808080" stop-opacity="0.1"/>
</linearGradient>
<clipPath id="clip0">
<rect width="53.8798" height="52.1727" fill="white" transform="translate(13.2703 9)"/>
</clipPath>
</defs>
</svg>
